<?xml version="1.0" standalone="no"?>
<!DOCTYPE svg PUBLIC "-//W3C//DTD SVG 1.1//EN" "http://www.w3.org/Graphics/SVG/1.1/DTD/svg11.dtd" >
<svg xmlns="http://www.w3.org/2000/svg" xmlns:xlink="http://www.w3.org/1999/xlink" version="1.1" viewBox="-10 0 2058 2048" height="70" width="70">
   <path fill="currentColor"
d="M1018 1867q-100 -64 -201.5 -140t-204.5 -167q-102 -89 -182 -193.5t-137 -219.5t-90 -237.5t-40 -247.5q-7 -126 -10 -253.5t-3 -260.5h704v-142h330v142h714q0 133 -4 261t-12 256q-8 126 -41.5 250t-90 240.5t-135.5 221.5t-179 192q-103 90 -206.5 164t-211.5 134z
M1018 1804q98 -54 198 -123.5t191.5 -153t168.5 -180.5t130 -207q52 -109 80.5 -224t35.5 -233q7 -119 10.5 -239.5t3.5 -245.5h-704v-142h-227v142h-698v243q0 120 11.5 237t38.5 231t81 226q53 108 132 204.5t170.5 181t189 156t188.5 127.5zM1024 652q50 0 100 19.5
t89.5 55.5t64 87.5t24.5 115.5q0 60 -21 111t-58 88t-88 58t-111 21q-62 0 -112 -22.5t-85.5 -60.5t-55 -88.5t-19.5 -106.5q0 -60 23 -111t60.5 -88t86.5 -58t102 -21z" />
</svg>
