<?xml version="1.0" standalone="no"?>
<!DOCTYPE svg PUBLIC "-//W3C//DTD SVG 1.1//EN" "http://www.w3.org/Graphics/SVG/1.1/DTD/svg11.dtd" >
<svg xmlns="http://www.w3.org/2000/svg" xmlns:xlink="http://www.w3.org/1999/xlink" version="1.1" viewBox="-10 0 2148 2048" height="70" width="70">
   <path fill="currentColor"
d="M1066 1818q-218 -130 -434 -321q-108 -95 -193 -205.5t-145 -232t-94 -250.5t-39 -261q-5 -134 -8 -269t-3 -275q238 154 470 154q226 0 446 -148q219 149 448 149q234 0 474 -155q0 138 -1.5 275t-15 270.5t-44 264t-89.5 256.5q-59 123 -146 232t-189.5 203t-215 172.5
t-221.5 140.5zM1066 1686q94 -54 186.5 -120t184.5 -145q185 -159 287 -375q34 -72 56.5 -146t37 -149.5t22 -153t10.5 -156.5l-1569 6q2 80 8.5 155t20 148t35.5 145t56 145q52 105 128.5 198.5t165.5 174.5t185 149.5t186 123.5z" />
</svg>
