<?xml version="1.0" standalone="no"?>
<!DOCTYPE svg PUBLIC "-//W3C//DTD SVG 1.1//EN" "http://www.w3.org/Graphics/SVG/1.1/DTD/svg11.dtd" >
<svg xmlns="http://www.w3.org/2000/svg" xmlns:xlink="http://www.w3.org/1999/xlink" version="1.1" viewBox="-10 0 955 2048" height="70" width="70">
   <path fill="currentColor"
d="M843 936q-20 5 -42 5q-39 0 -67.5 -4t-53.5 -16.5t-49.5 -35.5t-54.5 -61q-49 -63 -92 -91q1 15 10.5 46t20 66.5t19 69t8.5 52.5q0 117 -66 180q-66 -63 -66 -180q0 -19 9 -52t20 -68.5t20.5 -66.5t10.5 -47q-20 13 -45 38t-50.5 52t-47.5 50t-36 32q-56 36 -145 36
q-22 0 -42 -5q8 -31 25 -60t46 -53t71 -42t99 -27q83 -14 118 -31q-14 -6 -45 -13.5t-67 -15t-69 -16.5t-50 -18q-101 -58 -123 -147q18 -6 42 -6q38 0 66.5 4.5t54 17t50 35t54.5 59.5q25 31 49 52.5t45 36.5q-1 -15 -10.5 -46t-20.5 -66t-20 -68t-9 -52q0 -117 66 -180
q66 63 66 180q0 19 -8.5 52.5t-19 68.5t-20 66t-10.5 45q17 -13 40.5 -38t47.5 -51.5t45.5 -49.5t36.5 -32q53 -34 142 -34q24 0 42 6q-16 63 -70.5 112t-163.5 69q-41 8 -69 14.5t-45 14.5q13 6 44.5 14t67 16t68.5 17.5t50 18.5q100 59 123 147z" />
</svg>
